{
	"asset":{
		"generator":"Khronos glTF Blender I/O v3.6.28",
		"version":"2.0"
	},
	"scene":0,
	"scenes":[
		{
			"name":"Scene",
			"nodes":[
				4,
				7,
				9,
				10,
				12,
				13
			]
		}
	],
	"nodes":[
		{
			"mesh":0,
			"name":"Paku 3",
			"rotation":[
				0,
				0,
				1,
				1.6292182181132375e-07
			],
			"scale":[
				0.04477626830339432,
				0.040954768657684326,
				0.04460960626602173
			],
			"translation":[
				93.76885986328125,
				0.024669647216796875,
				-0.5142021775245667
			]
		},
		{
			"mesh":1,
			"name":"Paku Balok",
			"rotation":[
				-0.7071068286895752,
				0,
				0,
				0.7071068286895752
			],
			"scale":[
				0.09441526234149933,
				0.09406384080648422,
				0.09406384080648422
			],
			"translation":[
				89.81468200683594,
				0.0645521879196167,
				-1.6695526838302612
			]
		},
		{
			"mesh":2,
			"name":"Paku Dalam Bolong",
			"rotation":[
				-0.008833365514874458,
				0,
				0.9999610781669617,
				8.781506721788901e-07
			],
			"scale":[
				0.04477621242403984,
				0.040954768657684326,
				0.04460965469479561
			],
			"translation":[
				94.12419128417969,
				0.0006293654441833496,
				-0.9980491399765015
			]
		},
		{
			"mesh":3,
			"name":"Plane.002",
			"scale":[
				0.17559117078781128,
				0.17493760585784912,
				0.1197039932012558
			],
			"translation":[
				97.02835845947266,
				0.02270883321762085,
				-1.428052544593811
			]
		},
		{
			"children":[
				0,
				1,
				2,
				3
			],
			"mesh":4,
			"name":"Latar Map",
			"scale":[
				0.996277928352356,
				1,
				1
			],
			"translation":[
				-1.8067007064819336,
				0.004796862602233887,
				1.3660913705825806
			]
		},
		{
			"mesh":5,
			"name":"Circle.698",
			"rotation":[
				0,
				0,
				1,
				1.6292182181132375e-07
			],
			"scale":[
				0.04477626830339432,
				0.040954768657684326,
				0.04460960626602173
			],
			"translation":[
				86.67460632324219,
				0.024669528007507324,
				-2.129211902618408
			]
		},
		{
			"mesh":3,
			"name":"Plane.001",
			"scale":[
				0.17559117078781128,
				0.17493760585784912,
				0.1197039932012558
			],
			"translation":[
				97.02835845947266,
				0.02270883321762085,
				-1.4280524253845215
			]
		},
		{
			"children":[
				5,
				6
			],
			"mesh":4,
			"name":"Latar Map.001",
			"scale":[
				0.996277928352356,
				1,
				1
			],
			"translation":[
				-1.8067007064819336,
				0.004796862602233887,
				-0.6729435324668884
			]
		},
		{
			"mesh":6,
			"name":"Plane",
			"rotation":[
				0.7073972225189209,
				0.010510681197047234,
				0.03391662985086441,
				0.7059237957000732
			],
			"scale":[
				12.262751579284668,
				12.274870872497559,
				6.840750217437744
			],
			"translation":[
				-13.430360794067383,
				41.29566955566406,
				0
			]
		},
		{
			"children":[
				8
			],
			"mesh":7,
			"name":"Finish ",
			"rotation":[
				0,
				-0.7071068286895752,
				0,
				0.7071068286895752
			],
			"scale":[
				0.03135630860924721,
				0.05644460394978523,
				0.03135630860924721
			],
			"translation":[
				95.21100616455078,
				0,
				0.8284003734588623
			]
		},
		{
			"mesh":8,
			"name":"Latar Map.003",
			"scale":[
				0.996277928352356,
				1,
				1
			],
			"translation":[
				98.1943588256836,
				0.004796862602233887,
				-0.6729435324668884
			]
		},
		{
			"mesh":9,
			"name":"Plane.003",
			"rotation":[
				0.7073972225189209,
				0.010510681197047234,
				0.03391662985086441,
				0.7059237957000732
			],
			"scale":[
				12.262751579284668,
				12.274870872497559,
				6.840750217437744
			],
			"translation":[
				-13.43036937713623,
				41.29566955566406,
				3.46125216310611e-06
			]
		},
		{
			"children":[
				11
			],
			"mesh":10,
			"name":"Finish",
			"rotation":[
				0,
				0.7071068286895752,
				0,
				0.7071068286895752
			],
			"scale":[
				0.03135630860924721,
				0.05644460394978523,
				0.03135630860924721
			],
			"translation":[
				95.21100616455078,
				0,
				-2.9040510654449463
			]
		},
		{
			"mesh":11,
			"name":"Start",
			"translation":[
				-4.590002059936523,
				0.020627442747354507,
				-2.1016030311584473
			]
		}
	],
	"materials":[
		{
			"doubleSided":true,
			"name":"Material.004",
			"pbrMetallicRoughness":{}
		},
		{
			"doubleSided":true,
			"name":"Material.005",
			"pbrMetallicRoughness":{}
		},
		{
			"doubleSided":true,
			"name":"Material.008",
			"pbrMetallicRoughness":{}
		},
		{
			"doubleSided":true,
			"name":"Material.001",
			"pbrMetallicRoughness":{}
		},
		{
			"doubleSided":true,
			"name":"Material.009",
			"pbrMetallicRoughness":{}
		}
	],
	"meshes":[
		{
			"name":"Circle.329",
			"primitives":[
				{
					"attributes":{
						"POSITION":0,
						"NORMAL":1,
						"TEXCOORD_0":2
					},
					"indices":3,
					"material":0
				}
			]
		},
		{
			"name":"Cube.053",
			"primitives":[
				{
					"attributes":{
						"POSITION":4,
						"NORMAL":5,
						"TEXCOORD_0":6
					},
					"indices":7,
					"material":1
				},
				{
					"attributes":{
						"POSITION":8,
						"NORMAL":9,
						"TEXCOORD_0":10
					},
					"indices":11,
					"material":0
				}
			]
		},
		{
			"name":"Circle.421",
			"primitives":[
				{
					"attributes":{
						"POSITION":12,
						"NORMAL":13,
						"TEXCOORD_0":14
					},
					"indices":15,
					"material":0
				}
			]
		},
		{
			"name":"Plane.008",
			"primitives":[
				{
					"attributes":{
						"POSITION":16,
						"NORMAL":17,
						"TEXCOORD_0":18
					},
					"indices":19,
					"material":2
				}
			]
		},
		{
			"name":"Plane.005",
			"primitives":[
				{
					"attributes":{
						"POSITION":20,
						"NORMAL":21,
						"TEXCOORD_0":22
					},
					"indices":23,
					"material":3
				},
				{
					"attributes":{
						"POSITION":24,
						"NORMAL":25,
						"TEXCOORD_0":26
					},
					"indices":27,
					"material":4
				},
				{
					"attributes":{
						"POSITION":28,
						"NORMAL":29,
						"TEXCOORD_0":30
					},
					"indices":31,
					"material":1
				}
			]
		},
		{
			"name":"Circle.321",
			"primitives":[
				{
					"attributes":{
						"POSITION":32,
						"NORMAL":33,
						"TEXCOORD_0":34
					},
					"indices":35,
					"material":0
				}
			]
		},
		{
			"name":"Plane",
			"primitives":[
				{
					"attributes":{
						"POSITION":36,
						"NORMAL":37,
						"TEXCOORD_0":38
					},
					"indices":39,
					"material":2
				}
			]
		},
		{
			"name":"Circle.212",
			"primitives":[
				{
					"attributes":{
						"POSITION":40,
						"NORMAL":41,
						"TEXCOORD_0":42
					},
					"indices":43,
					"material":2
				}
			]
		},
		{
			"name":"Plane.003",
			"primitives":[
				{
					"attributes":{
						"POSITION":44,
						"NORMAL":45,
						"TEXCOORD_0":46
					},
					"indices":47,
					"material":3
				}
			]
		},
		{
			"name":"Plane.004",
			"primitives":[
				{
					"attributes":{
						"POSITION":48,
						"NORMAL":49,
						"TEXCOORD_0":50
					},
					"indices":39,
					"material":2
				}
			]
		},
		{
			"name":"Circle.213",
			"primitives":[
				{
					"attributes":{
						"POSITION":51,
						"NORMAL":52,
						"TEXCOORD_0":53
					},
					"indices":43,
					"material":2
				}
			]
		},
		{
			"name":"Plane.001",
			"primitives":[
				{
					"attributes":{
						"POSITION":54,
						"NORMAL":55,
						"TEXCOORD_0":56
					},
					"indices":57,
					"material":2
				}
			]
		}
	],
	"accessors":[
		{
			"bufferView":0,
			"componentType":5126,
			"count":30015,
			"max":[
				2027.9703369140625,
				0.21906796097755432,
				1.8699703216552734
			],
			"min":[
				-44.21728515625,
				-6.710439682006836,
				-87.51160430908203
			],
			"type":"VEC3"
		},
		{
			"bufferView":1,
			"componentType":5126,
			"count":30015,
			"type":"VEC3"
		},
		{
			"bufferView":2,
			"componentType":5126,
			"count":30015,
			"type":"VEC2"
		},
		{
			"bufferView":3,
			"componentType":5123,
			"count":78660,
			"type":"SCALAR"
		},
		{
			"bufferView":4,
			"componentType":5126,
			"count":3124,
			"max":[
				0.5230308175086975,
				30.03680419921875,
				6.179124355316162
			],
			"min":[
				-811.9578247070312,
				-13.486501693725586,
				-0.5230312347412109
			],
			"type":"VEC3"
		},
		{
			"bufferView":5,
			"componentType":5126,
			"count":3124,
			"type":"VEC3"
		},
		{
			"bufferView":6,
			"componentType":5126,
			"count":3124,
			"type":"VEC2"
		},
		{
			"bufferView":7,
			"componentType":5123,
			"count":6072,
			"type":"SCALAR"
		},
		{
			"bufferView":8,
			"componentType":5126,
			"count":24583,
			"max":[
				0.565377950668335,
				29.41472816467285,
				2.4976775646209717
			],
			"min":[
				-814.911376953125,
				-12.87023639678955,
				-0.5190616846084595
			],
			"type":"VEC3"
		},
		{
			"bufferView":9,
			"componentType":5126,
			"count":24583,
			"type":"VEC3"
		},
		{
			"bufferView":10,
			"componentType":5126,
			"count":24583,
			"type":"VEC2"
		},
		{
			"bufferView":11,
			"componentType":5123,
			"count":60420,
			"type":"SCALAR"
		},
		{
			"bufferView":12,
			"componentType":5126,
			"count":40368,
			"max":[
				850.0592651367188,
				0.21997377276420593,
				27.16876220703125
			],
			"min":[
				-39.008544921875,
				-6.7104973793029785,
				-77.71776580810547
			],
			"type":"VEC3"
		},
		{
			"bufferView":13,
			"componentType":5126,
			"count":40368,
			"type":"VEC3"
		},
		{
			"bufferView":14,
			"componentType":5126,
			"count":40368,
			"type":"VEC2"
		},
		{
			"bufferView":15,
			"componentType":5123,
			"count":105792,
			"type":"SCALAR"
		},
		{
			"bufferView":16,
			"componentType":5126,
			"count":24,
			"max":[
				2.2439370155334473,
				-1.862645149230957e-09,
				8.504597663879395
			],
			"min":[
				-2.2439370155334473,
				-0.04736236482858658,
				-8.52996826171875
			],
			"type":"VEC3"
		},
		{
			"bufferView":17,
			"componentType":5126,
			"count":24,
			"type":"VEC3"
		},
		{
			"bufferView":18,
			"componentType":5126,
			"count":24,
			"type":"VEC2"
		},
		{
			"bufferView":19,
			"componentType":5123,
			"count":36,
			"type":"SCALAR"
		},
		{
			"bufferView":20,
			"componentType":5126,
			"count":4822,
			"max":[
				100.37359619140625,
				0.019479719921946526,
				-0.40830519795417786
			],
			"min":[
				0,
				-0.04256109893321991,
				-2.446967124938965
			],
			"type":"VEC3"
		},
		{
			"bufferView":21,
			"componentType":5126,
			"count":4822,
			"type":"VEC3"
		},
		{
			"bufferView":22,
			"componentType":5126,
			"count":4822,
			"type":"VEC2"
		},
		{
			"bufferView":23,
			"componentType":5123,
			"count":9378,
			"type":"SCALAR"
		},
		{
			"bufferView":24,
			"componentType":5126,
			"count":20,
			"max":[
				68.73528289794922,
				-0.0023608729243278503,
				-0.8425461053848267
			],
			"min":[
				66.84101867675781,
				-0.0077346377074718475,
				-1.5993106365203857
			],
			"type":"VEC3"
		},
		{
			"bufferView":25,
			"componentType":5126,
			"count":20,
			"type":"VEC3"
		},
		{
			"bufferView":26,
			"componentType":5126,
			"count":20,
			"type":"VEC2"
		},
		{
			"bufferView":27,
			"componentType":5123,
			"count":48,
			"type":"SCALAR"
		},
		{
			"bufferView":28,
			"componentType":5126,
			"count":350,
			"max":[
				95.96176147460938,
				-0.0017901819664984941,
				-0.40830522775650024
			],
			"min":[
				56.00230026245117,
				-0.0023609204217791557,
				-2.4469668865203857
			],
			"type":"VEC3"
		},
		{
			"bufferView":29,
			"componentType":5126,
			"count":350,
			"type":"VEC3"
		},
		{
			"bufferView":30,
			"componentType":5126,
			"count":350,
			"type":"VEC2"
		},
		{
			"bufferView":31,
			"componentType":5123,
			"count":852,
			"type":"SCALAR"
		},
		{
			"bufferView":32,
			"componentType":5126,
			"count":261,
			"max":[
				1,
				0.21834856271743774,
				1
			],
			"min":[
				-1,
				-6.710418701171875,
				-5.599999904632568
			],
			"type":"VEC3"
		},
		{
			"bufferView":33,
			"componentType":5126,
			"count":261,
			"type":"VEC3"
		},
		{
			"bufferView":34,
			"componentType":5126,
			"count":261,
			"type":"VEC2"
		},
		{
			"bufferView":35,
			"componentType":5123,
			"count":684,
			"type":"SCALAR"
		},
		{
			"bufferView":36,
			"componentType":5126,
			"count":11,
			"max":[
				1.100390076637268,
				4.8587828205270966e-11,
				0.9994652271270752
			],
			"min":[
				-2.1008334159851074,
				-0.12617461383342743,
				-1.0636448860168457
			],
			"type":"VEC3"
		},
		{
			"bufferView":37,
			"componentType":5126,
			"count":11,
			"type":"VEC3"
		},
		{
			"bufferView":38,
			"componentType":5126,
			"count":11,
			"type":"VEC2"
		},
		{
			"bufferView":39,
			"componentType":5123,
			"count":27,
			"type":"SCALAR"
		},
		{
			"bufferView":40,
			"componentType":5126,
			"count":54,
			"max":[
				1,
				49.97740936279297,
				1
			],
			"min":[
				-1,
				0,
				-1
			],
			"type":"VEC3"
		},
		{
			"bufferView":41,
			"componentType":5126,
			"count":54,
			"type":"VEC3"
		},
		{
			"bufferView":42,
			"componentType":5126,
			"count":54,
			"type":"VEC2"
		},
		{
			"bufferView":43,
			"componentType":5123,
			"count":132,
			"type":"SCALAR"
		},
		{
			"bufferView":44,
			"componentType":5126,
			"count":210,
			"max":[
				21.76433563232422,
				0.019479718059301376,
				1.6307296752929688
			],
			"min":[
				0,
				-0.04256109148263931,
				-2.4469668865203857
			],
			"type":"VEC3"
		},
		{
			"bufferView":45,
			"componentType":5126,
			"count":210,
			"type":"VEC3"
		},
		{
			"bufferView":46,
			"componentType":5126,
			"count":210,
			"type":"VEC2"
		},
		{
			"bufferView":47,
			"componentType":5123,
			"count":330,
			"type":"SCALAR"
		},
		{
			"bufferView":48,
			"componentType":5126,
			"count":11,
			"max":[
				1.100390076637268,
				4.8587828205270966e-11,
				0.9994652271270752
			],
			"min":[
				-2.1008334159851074,
				-0.12617461383342743,
				-1.0636448860168457
			],
			"type":"VEC3"
		},
		{
			"bufferView":49,
			"componentType":5126,
			"count":11,
			"type":"VEC3"
		},
		{
			"bufferView":50,
			"componentType":5126,
			"count":11,
			"type":"VEC2"
		},
		{
			"bufferView":51,
			"componentType":5126,
			"count":54,
			"max":[
				1,
				49.97740936279297,
				1
			],
			"min":[
				-1,
				0,
				-1
			],
			"type":"VEC3"
		},
		{
			"bufferView":52,
			"componentType":5126,
			"count":54,
			"type":"VEC3"
		},
		{
			"bufferView":53,
			"componentType":5126,
			"count":54,
			"type":"VEC2"
		},
		{
			"bufferView":54,
			"componentType":5126,
			"count":24,
			"max":[
				2.7868244647979736,
				0,
				3.0524778366088867
			],
			"min":[
				-1,
				-0.05651693791151047,
				-1
			],
			"type":"VEC3"
		},
		{
			"bufferView":55,
			"componentType":5126,
			"count":24,
			"type":"VEC3"
		},
		{
			"bufferView":56,
			"componentType":5126,
			"count":24,
			"type":"VEC2"
		},
		{
			"bufferView":57,
			"componentType":5123,
			"count":36,
			"type":"SCALAR"
		}
	],
	"bufferViews":[
		{
			"buffer":0,
			"byteLength":360180,
			"byteOffset":0,
			"target":34962
		},
		{
			"buffer":0,
			"byteLength":360180,
			"byteOffset":360180,
			"target":34962
		},
		{
			"buffer":0,
			"byteLength":240120,
			"byteOffset":720360,
			"target":34962
		},
		{
			"buffer":0,
			"byteLength":157320,
			"byteOffset":960480,
			"target":34963
		},
		{
			"buffer":0,
			"byteLength":37488,
			"byteOffset":1117800,
			"target":34962
		},
		{
			"buffer":0,
			"byteLength":37488,
			"byteOffset":1155288,
			"target":34962
		},
		{
			"buffer":0,
			"byteLength":24992,
			"byteOffset":1192776,
			"target":34962
		},
		{
			"buffer":0,
			"byteLength":12144,
			"byteOffset":1217768,
			"target":34963
		},
		{
			"buffer":0,
			"byteLength":294996,
			"byteOffset":1229912,
			"target":34962
		},
		{
			"buffer":0,
			"byteLength":294996,
			"byteOffset":1524908,
			"target":34962
		},
		{
			"buffer":0,
			"byteLength":196664,
			"byteOffset":1819904,
			"target":34962
		},
		{
			"buffer":0,
			"byteLength":120840,
			"byteOffset":2016568,
			"target":34963
		},
		{
			"buffer":0,
			"byteLength":484416,
			"byteOffset":2137408,
			"target":34962
		},
		{
			"buffer":0,
			"byteLength":484416,
			"byteOffset":2621824,
			"target":34962
		},
		{
			"buffer":0,
			"byteLength":322944,
			"byteOffset":3106240,
			"target":34962
		},
		{
			"buffer":0,
			"byteLength":211584,
			"byteOffset":3429184,
			"target":34963
		},
		{
			"buffer":0,
			"byteLength":288,
			"byteOffset":3640768,
			"target":34962
		},
		{
			"buffer":0,
			"byteLength":288,
			"byteOffset":3641056,
			"target":34962
		},
		{
			"buffer":0,
			"byteLength":192,
			"byteOffset":3641344,
			"target":34962
		},
		{
			"buffer":0,
			"byteLength":72,
			"byteOffset":3641536,
			"target":34963
		},
		{
			"buffer":0,
			"byteLength":57864,
			"byteOffset":3641608,
			"target":34962
		},
		{
			"buffer":0,
			"byteLength":57864,
			"byteOffset":3699472,
			"target":34962
		},
		{
			"buffer":0,
			"byteLength":38576,
			"byteOffset":3757336,
			"target":34962
		},
		{
			"buffer":0,
			"byteLength":18756,
			"byteOffset":3795912,
			"target":34963
		},
		{
			"buffer":0,
			"byteLength":240,
			"byteOffset":3814668,
			"target":34962
		},
		{
			"buffer":0,
			"byteLength":240,
			"byteOffset":3814908,
			"target":34962
		},
		{
			"buffer":0,
			"byteLength":160,
			"byteOffset":3815148,
			"target":34962
		},
		{
			"buffer":0,
			"byteLength":96,
			"byteOffset":3815308,
			"target":34963
		},
		{
			"buffer":0,
			"byteLength":4200,
			"byteOffset":3815404,
			"target":34962
		},
		{
			"buffer":0,
			"byteLength":4200,
			"byteOffset":3819604,
			"target":34962
		},
		{
			"buffer":0,
			"byteLength":2800,
			"byteOffset":3823804,
			"target":34962
		},
		{
			"buffer":0,
			"byteLength":1704,
			"byteOffset":3826604,
			"target":34963
		},
		{
			"buffer":0,
			"byteLength":3132,
			"byteOffset":3828308,
			"target":34962
		},
		{
			"buffer":0,
			"byteLength":3132,
			"byteOffset":3831440,
			"target":34962
		},
		{
			"buffer":0,
			"byteLength":2088,
			"byteOffset":3834572,
			"target":34962
		},
		{
			"buffer":0,
			"byteLength":1368,
			"byteOffset":3836660,
			"target":34963
		},
		{
			"buffer":0,
			"byteLength":132,
			"byteOffset":3838028,
			"target":34962
		},
		{
			"buffer":0,
			"byteLength":132,
			"byteOffset":3838160,
			"target":34962
		},
		{
			"buffer":0,
			"byteLength":88,
			"byteOffset":3838292,
			"target":34962
		},
		{
			"buffer":0,
			"byteLength":54,
			"byteOffset":3838380,
			"target":34963
		},
		{
			"buffer":0,
			"byteLength":648,
			"byteOffset":3838436,
			"target":34962
		},
		{
			"buffer":0,
			"byteLength":648,
			"byteOffset":3839084,
			"target":34962
		},
		{
			"buffer":0,
			"byteLength":432,
			"byteOffset":3839732,
			"target":34962
		},
		{
			"buffer":0,
			"byteLength":264,
			"byteOffset":3840164,
			"target":34963
		},
		{
			"buffer":0,
			"byteLength":2520,
			"byteOffset":3840428,
			"target":34962
		},
		{
			"buffer":0,
			"byteLength":2520,
			"byteOffset":3842948,
			"target":34962
		},
		{
			"buffer":0,
			"byteLength":1680,
			"byteOffset":3845468,
			"target":34962
		},
		{
			"buffer":0,
			"byteLength":660,
			"byteOffset":3847148,
			"target":34963
		},
		{
			"buffer":0,
			"byteLength":132,
			"byteOffset":3847808,
			"target":34962
		},
		{
			"buffer":0,
			"byteLength":132,
			"byteOffset":3847940,
			"target":34962
		},
		{
			"buffer":0,
			"byteLength":88,
			"byteOffset":3848072,
			"target":34962
		},
		{
			"buffer":0,
			"byteLength":648,
			"byteOffset":3848160,
			"target":34962
		},
		{
			"buffer":0,
			"byteLength":648,
			"byteOffset":3848808,
			"target":34962
		},
		{
			"buffer":0,
			"byteLength":432,
			"byteOffset":3849456,
			"target":34962
		},
		{
			"buffer":0,
			"byteLength":288,
			"byteOffset":3849888,
			"target":34962
		},
		{
			"buffer":0,
			"byteLength":288,
			"byteOffset":3850176,
			"target":34962
		},
		{
			"buffer":0,
			"byteLength":192,
			"byteOffset":3850464,
			"target":34962
		},
		{
			"buffer":0,
			"byteLength":72,
			"byteOffset":3850656,
			"target":34963
		}
	],
	"buffers":[
		{
			"byteLength":3850728,
			"uri":"Map%20Jadi.bin"
		}
	]
}
